<?xml version="1.0" encoding="iso-8859-1"?>
<!-- Generator: Adobe Illustrator 16.0.0, SVG Export Plug-In . SVG Version: 6.00 Build 0)  -->
<!DOCTYPE svg PUBLIC "-//W3C//DTD SVG 1.1//EN" "http://www.w3.org/Graphics/SVG/1.1/DTD/svg11.dtd">
<svg xmlns="http://www.w3.org/2000/svg" xmlns:xlink="http://www.w3.org/1999/xlink" version="1.1" id="Capa_1" x="0px" y="0px" width="512px" height="512px" viewBox="0 0 235.504 235.504" style="enable-background:new 0 0 235.504 235.504;" xml:space="preserve">
<g>
	<g>
		<path d="M233.081,70.842c8.916-25.223-9.582-54.746-10.372-55.98c-0.777-1.196-2.224-1.725-3.618-1.302    c-1.358,0.467-2.24,1.777-2.148,3.188c1.227,18.031-1.747,30.981-8.768,38.517c-4.741,5.06-11.241,7.604-19.336,7.604    c-5.398,0-9.57-1.196-9.614-1.196c-21.436-8.831-42.378-10.149-52.974-10.149c-5.28,0-8.446,0.307-8.446,0.321    c-0.106-0.014-3.274-0.321-8.556-0.321c-10.589,0-31.55,1.318-52.729,10.057c-0.042,0.016-4.288,1.289-9.871,1.289    c-8.083,0-14.593-2.545-19.318-7.604c-7.043-7.536-9.994-20.486-8.768-38.517c0.092-1.425-0.799-2.735-2.154-3.188    c-1.373-0.445-2.855,0.106-3.611,1.302C11.997,16.096-6.49,45.619,2.422,70.842c3.759,10.642,11.79,18.829,23.935,24.417    c-11.012,4.801-17.154,8.472-18.278,10.926c-0.399,0.904-0.367,1.932,0.104,2.79c0.391,0.737,9.82,17.879,25.215,17.879    c1.28,0,2.599-0.132,3.871-0.377l17.088-2.837c4.218,13.886,14.77,45.5,25.671,53.735c-1.835,2.669-3.875,6.793-4.12,12.175    c-0.393,8.491,3.759,17.28,12.357,26.08c4.122,4.256,6.869,6.468,19.412,6.468c1.721,0,3.623-0.027,5.646-0.128h8.816    c2.126,0.101,4.046,0.128,5.749,0.128c12.543,0,15.265-2.22,19.412-6.468c8.588-8.8,12.756-17.589,12.358-26.08    c-0.232-5.382-2.284-9.506-4.123-12.175c10.916-8.235,21.432-39.85,25.663-53.735l17.02,2.821    c17.589,3.322,28.737-16.711,29.15-17.493c0.469-0.868,0.488-1.896,0.116-2.783c-1.146-2.446-7.262-6.103-18.278-10.932    C221.291,89.687,229.333,81.5,233.081,70.842z M199.863,92.231c-1.242,0.423-2.092,1.549-2.132,2.875    c-0.032,1.303,0.749,2.477,1.963,2.99c8.172,3.312,17.617,7.69,20.943,9.852c-2.637,3.964-9.445,12.649-18.507,12.649    c-0.905,0-1.815-0.092-2.845-0.269l-19.809-3.322c-1.511-0.228-3.066,0.702-3.503,2.208c-7.658,26.021-19.74,53.889-25.515,53.889    c-1.319,0-2.485,0.813-2.93,2.048c-0.465,1.218-0.112,2.604,0.882,3.45c0.056,0.044,4.685,4.199,5.009,11.225    c0.289,6.704-3.266,13.922-10.604,21.439c-3.65,3.751-4.553,5.014-20.576,4.448h-9.035c-15.208,0.554-16.833-0.721-20.458-4.448    c-7.284-7.481-10.84-14.663-10.6-21.344c0.276-7.08,4.823-11.16,5.003-11.32c0.996-0.846,1.348-2.232,0.883-3.45    c-0.462-1.219-1.617-2.048-2.927-2.048c-5.777,0-17.859-27.868-25.521-53.889c-0.445-1.506-1.963-2.444-3.5-2.208l-19.901,3.331    c-10.457,1.991-18.258-7.929-21.217-12.313c3.553-2.354,12.834-6.662,20.879-9.928c1.212-0.491,2.014-1.695,1.963-2.99    c-0.046-1.326-0.877-2.452-2.128-2.875c-14.316-4.829-23.52-12.71-27.318-23.436c-4.711-13.309-0.399-28.611,3.895-38.87    c0.77,13.01,4.308,22.938,10.547,29.631c5.873,6.271,14.141,9.592,23.909,9.592c6.57,0,11.515-1.503,11.97-1.679    c20.45-8.426,40.475-9.684,50.602-9.684c4.907,0,7.843,0.292,8.239,0.323c0.114,0,0.743,0,0.846-0.014    c0.078-0.016,3.014-0.309,7.923-0.309c10.118,0,30.144,1.258,50.858,9.784c0.2,0.076,5.129,1.579,11.718,1.579    c9.758,0,18.029-3.32,23.899-9.6c6.256-6.692,9.782-16.613,10.568-29.623c4.292,10.259,8.6,25.562,3.879,38.862    C223.382,79.521,214.197,87.402,199.863,92.231z" fill="#FFFFFF"/>
		<path d="M104.71,192.676c3.063,0,5.542,2.477,5.542,5.542c0,3.062-2.479,5.542-5.542,5.542c-3.058,0-5.542-2.48-5.542-5.542    C99.168,195.152,101.653,192.676,104.71,192.676z" fill="#FFFFFF"/>
		<path d="M130.787,192.676c3.069,0,5.55,2.477,5.55,5.542c0,3.062-2.48,5.542-5.55,5.542c-3.058,0-5.538-2.48-5.538-5.542    C125.249,195.152,127.729,192.676,130.787,192.676z" fill="#FFFFFF"/>
	</g>
</g>
<g>
</g>
<g>
</g>
<g>
</g>
<g>
</g>
<g>
</g>
<g>
</g>
<g>
</g>
<g>
</g>
<g>
</g>
<g>
</g>
<g>
</g>
<g>
</g>
<g>
</g>
<g>
</g>
<g>
</g>
</svg>
