<?xml version="1.0" encoding="UTF-8"?>
<!DOCTYPE svg PUBLIC "-//W3C//DTD SVG 1.1//EN" "http://www.w3.org/Graphics/SVG/1.1/DTD/svg11.dtd">
<!-- Creator: CorelDRAW -->
<svg xmlns="http://www.w3.org/2000/svg" xml:space="preserve" width="141.709mm" height="54.183mm" style="shape-rendering:geometricPrecision; text-rendering:geometricPrecision; image-rendering:optimizeQuality; fill-rule:evenodd; clip-rule:evenodd"
viewBox="0 0 143.298 54.7903"
 xmlns:xlink="http://www.w3.org/1999/xlink">
 <defs>
  <style type="text/css">
   <![CDATA[
    .fil0 {fill:none}
    .fil1 {fill:#333333}
    .fil3 {fill:red}
    .fil2 {fill:white}
    .fil4 {fill:white;fill-rule:nonzero}
   ]]>
  </style>
 </defs>
 <g id="Camada_x0020_1">
  <metadata id="CorelCorpID_0Corel-Layer"/>
  <rect class="fil0" x="-3.31753e-005" width="143.298" height="54.7903"/>
  <circle class="fil1" cx="27.0404" cy="28.2357" r="22.7001"/>
  <circle class="fil2" cx="27.0404" cy="25.6672" r="23.4069"/>
  <polygon class="fil3" points="10.6183,12.0441 12.6489,12.0441 12.6489,33.322 10.6183,31.3608 "/>
  <polygon class="fil3" points="13.2767,12.0441 15.3073,12.0441 15.3073,35.8753 13.2767,33.9141 "/>
  <path class="fil3" d="M16.1196 12.1551c0,8.16581 0,16.3316 0,24.4974 0.446853,2.04183 1.71107,2.74654 3.43376,2.70134 4.18438,0 8.36886,0 12.5533,0 0,-6.57457 0,-13.1491 0,-19.7237 2.11686,0 4.23373,0 6.35059,0 -0.721295,1.0281 -2.25863,1.69337 -4.02451,2.25732 0.492256,0.616736 0.827775,1.0371 1.32013,1.65383 7.26614,-1.68012 6.65183,-9.75877 0.895121,-11.4972 -4.08599,0 -8.17198,0 -12.2579,0 0,6.53756 0,13.0751 0,19.6127 -2.11686,0 -4.23373,0 -6.35059,0 0,-6.49944 0,-12.9988 0,-19.4981 -0.639994,-0.00121345 -1.27999,-0.0024269 -1.91998,-0.00353923z"/>
  <path class="fil2" d="M35.6861 13.8174l-9.23971 0 0 19.7842 -8.26167 0 0 1.13053 9.3921 0 0 -19.6971c3.31919,0 6.05117,0 9.37026,0 -0.12903,-0.634533 -0.532098,-1.05398 -1.26098,-1.2176z"/>
  <path class="fil2" d="M37.6344 16.6054l-8.35956 0 0 19.8014c-3.70456,0 -7.40912,0 -11.1138,0 0.231668,0.519357 0.737474,0.905638 1.57425,1.13154l10.5623 0 0 -19.7143c3.00298,0 5.47478,0 8.47767,0 -0.116693,-0.635039 -0.481436,-1.05489 -1.14085,-1.21861z"/>
  <path class="fil3" d="M41.472 18.2217c0.38436,2.84938 -1.49325,4.77958 -4.60231,6.20953 0.519255,0.555861 1.03851,1.11172 1.55767,1.66768 3.21261,-1.88439 4.59978,-4.3845 3.04465,-7.87721z"/>
  <path class="fil3" d="M42.697 21.1668c0.335822,2.49 -1.30496,4.1768 -4.02188,5.42635 0.453729,0.485784 0.907559,0.971468 1.36119,1.45735 2.80742,-1.64675 4.01965,-3.83147 2.66069,-6.8837z"/>
  <path class="fil4" d="M64.0926 34.3415c-1.23276,0 -2.27522,-0.14076 -3.12736,-0.422281 -0.852246,-0.28152 -1.54472,-0.703801 -2.07732,-1.26694 -0.532603,-0.563041 -0.916862,-1.27453 -1.15278,-2.13436 -0.235915,-0.85983 -0.353822,-1.87559 -0.353822,-3.04738l0 -10.2495 3.51547 0 0 10.1353c0,1.43056 0.24724,2.46158 0.741822,3.09308 0.494582,0.631601 1.31255,0.947401 2.454,0.947401 1.14135,0 1.95932,-0.312059 2.4539,-0.935974 0.494582,-0.623915 0.741923,-1.65879 0.741923,-3.10451l0 -10.1353 3.51536 0 0 10.2495c0,1.17179 -0.117907,2.18755 -0.353822,3.04738 -0.235915,0.85983 -0.620174,1.57516 -1.15278,2.14578 -0.532603,0.570726 -1.22508,0.993006 -2.07732,1.26694 -0.852145,0.273936 -1.8946,0.410854 -3.12726,0.410854z"/>
  <polygon class="fil4" points="73.5888,17.2211 76.5106,17.2211 82.7653,26.4205 83.8153,28.2924 83.9979,28.2924 83.9979,17.2211 87.1253,17.2211 87.1253,34.1133 84.2034,34.1133 77.9715,24.9367 76.8986,23.0192 76.6933,23.0192 76.6933,34.1133 73.5888,34.1133 "/>
  <polygon class="fil4" points="90.0244,17.2211 93.5398,17.2211 93.5398,34.1133 90.0244,34.1133 "/>
  <path class="fil4" d="M96.4618 17.3352c1.5066,-0.228331 2.99034,-0.342395 4.45124,-0.342395 1.33924,0 2.49586,0.114064 3.46976,0.342395 0.973996,0.22823 1.77295,0.589737 2.39687,1.08432 0.624017,0.494582 1.08432,1.12234 1.38111,1.88317 0.296688,0.760934 0.445134,1.66647 0.445134,2.71651 0,2.06964 -0.608747,3.58392 -1.82624,4.54265 -1.21739,0.958726 -3.13495,1.43814 -5.75246,1.43814l-1.05004 0 0 5.11328 -3.51536 0 0 -16.7781zm5.04482 8.85697c0.639185,0 1.18321,-0.0532907 1.63209,-0.159771 0.448976,-0.10648 0.810382,-0.285363 1.08432,-0.536446 0.273936,-0.251083 0.47183,-0.57831 0.593478,-0.98158 0.121749,-0.40327 0.182624,-0.901694 0.182624,-1.49517 0,-1.15662 -0.254824,-1.97833 -0.764676,-2.46533 -0.509851,-0.486998 -1.41144,-0.730497 -2.70508,-0.730497 -0.243398,0 -0.513593,0.0151681 -0.810281,0.0456055 -0.29679,0.0304374 -0.544131,0.0608747 -0.741923,0.0913121l0 6.11771c0.213062,0.0304374 0.460302,0.0571333 0.741923,0.0799866 0.28152,0.0227522 0.54403,0.0341788 0.787529,0.0341788z"/>
  <path class="fil4" d="M109.085 33.9535l4.79373 -16.7325 5.27315 0 4.79373 16.7325 0 0.159771 -3.35569 0 -1.20981 -4.20026 -5.75246 0 -1.18706 4.20026 -3.35559 0 0 -0.159771zm9.56461 -6.84821l-1.27827 -4.5198 -0.730497 -2.76212 -0.273936 0 -0.730497 2.76212 -1.27827 4.5198 4.29147 0z"/>
  <path class="fil4" d="M131.433 28.2924c-0.197893,0.0151681 -0.395686,0.0265948 -0.593579,0.0341788 -0.197792,0.00758406 -0.40327,0.0114267 -0.616331,0.0114267 -0.0608747,0 -0.148344,0 -0.26251,0 -0.114064,0 -0.239656,0 -0.376574,0 -0.137019,0 -0.266352,-0.00384259 -0.388102,-0.0114267 -0.121749,-0.00758406 -0.213062,-0.0114267 -0.273936,-0.0114267l0 5.79817 -3.51536 0 0 -16.7781c0.715228,-0.121749 1.44572,-0.209219 2.19139,-0.26251 0.745665,-0.0532907 1.49902,-0.0798854 2.25985,-0.0798854 2.69366,0 4.64923,0.452718 5.86663,1.35815 1.21749,0.905537 1.82624,2.36269 1.82624,4.37145 0,2.46533 -1.00443,4.11653 -3.0132,4.9535l3.53822 6.43735 -3.76655 0 -2.87618 -5.82092zm-0.98158 -2.6708c0.654353,0 1.20223,-0.0532907 1.64352,-0.159872 0.441392,-0.10648 0.798956,-0.273936 1.07289,-0.502166 0.273936,-0.22823 0.47183,-0.525019 0.593478,-0.890268 0.121749,-0.365248 0.182624,-0.814124 0.182624,-1.34683 0,-0.532603 -0.0608747,-0.985321 -0.182624,-1.35815 -0.121648,-0.372934 -0.319542,-0.673465 -0.593478,-0.901694 -0.273936,-0.228331 -0.6315,-0.391944 -1.07289,-0.49084 -0.441291,-0.0988962 -0.98158,-0.148344 -1.62076,-0.148344 -0.21296,0 -0.467886,0.0151681 -0.764676,0.0456055 -0.29679,0.0304374 -0.559299,0.0608747 -0.787529,0.0913121l0 5.54708c0.213062,0.0304374 0.45656,0.0570321 0.730497,0.0798854 0.273936,0.0228533 0.540187,0.03428 0.798956,0.03428z"/>
 </g>
</svg>
